HIERARCHY
ROOT hip
{
	OFFSET	0.00  0.00  0.00 
	CHANNELS 6 Xposition Yposition Zposition Xrotation Zrotation Yrotation
	JOINT abdomen
	{
		OFFSET	0.000000 0.000000 0.000000
		CHANNELS 3 Xrotation Zrotation Yrotation
		JOINT chest
		{
			OFFSET	0.000000 5.018152 -1.882228
			CHANNELS 3 Xrotation Zrotation Yrotation
			JOINT neckDummy
			{
				OFFSET	0.000000 8.316447 0.784897
				CHANNELS 3 Xrotation Yrotation Zrotation
				JOINT neck
				{
					OFFSET	0.000000 2.280413 -0.392801
					CHANNELS 3 Xrotation Zrotation Yrotation
					JOINT head
					{
						OFFSET	0.000000 3.496879 0.529469
						CHANNELS 3 Xrotation Zrotation Yrotation
						JOINT figureHair
						{
							OFFSET	0.000000 4.699570 0.720622
							CHANNELS 3 Zrotation Yrotation Xrotation
							End Site
							{
								OFFSET 0.000000 -6.419331 0.000000
							}
						}
					}
				}
			}
			JOINT lCollar
			{
				OFFSET	0.599237 8.316447 0.784897
				CHANNELS 3 Yrotation Zrotation Xrotation
				JOINT lShldr
				{
					OFFSET	6.421198 0.010146 -0.332128
					CHANNELS 3 Zrotation Yrotation Xrotation
					JOINT lForeArm
					{
						OFFSET	10.552783 0.025574 0.125508
						CHANNELS 3 Yrotation Zrotation Xrotation
						JOINT lHand
						{
							OFFSET	11.035963 0.319619 0.041520
							CHANNELS 3 Zrotation Yrotation Xrotation
							End Site
							{
								OFFSET 10.353753 0.000000 0.000000
							}
						}
					}
				}
			}
			JOINT rCollar
			{
				OFFSET	-0.599237 8.316447 0.784897
				CHANNELS 3 Yrotation Zrotation Xrotation
				JOINT rShldr
				{
					OFFSET	-6.421198 0.010146 -0.332128
					CHANNELS 3 Zrotation Yrotation Xrotation
					JOINT rForeArm
					{
						OFFSET	-10.552783 0.025574 0.125508
						CHANNELS 3 Yrotation Zrotation Xrotation
						JOINT rHand
						{
							OFFSET	-11.035963 0.319619 0.041520
							CHANNELS 3 Zrotation Yrotation Xrotation
							End Site
							{
								OFFSET -10.353753 0.000000 0.000000
							}
						}
					}
				}
			}
		}
	}
	JOINT lThigh
	{
		OFFSET	4.500466 -6.400484 -1.832696
		CHANNELS 3 Xrotation Zrotation Yrotation
		JOINT lShin
		{
			OFFSET	-1.359117 -18.918689 1.179887
			CHANNELS 3 Xrotation Zrotation Yrotation
			JOINT lFoot
			{
				OFFSET	-0.652380 -17.215186 -0.312137
				CHANNELS 3 Xrotation Yrotation Zrotation
				End Site
				{
					OFFSET 0.000000 0.000000 10.353752
				}
			}
		}
	}
	JOINT rThigh
	{
		OFFSET	-4.500466 -6.400484 -1.832696
		CHANNELS 3 Xrotation Zrotation Yrotation
		JOINT rShin
		{
			OFFSET	1.359117 -18.918689 1.179887
			CHANNELS 3 Xrotation Zrotation Yrotation
			JOINT rFoot
			{
				OFFSET	0.652380 -17.215186 -0.312137
				CHANNELS 3 Xrotation Yrotation Zrotation
				End Site
				{
					OFFSET 0.000000 0.000000 10.353752
				}
			}
		}
	}
}
MOTION
Frames:     7
Frame Time: 0.041667
-0.068588 41.502270 0.217734 0.000000 0.000000 0.000000 0.344939 -0.965774 -0.389497 -0.542047 -1.140030 0.079905 0.000000 0.000000 0.000000 0.000000 0.000000 0.000000 0.000000 0.000000 0.000000 0.000000 0.000000 0.000000 2.022840 -5.690640 -0.065404 -62.771599 21.355200 18.219000 -31.359301 -12.221000 -1.275610 7.907900 -3.780140 0.129098 -2.915650 6.065130 -0.049573 68.538200 34.087299 5.815930 40.059399 14.652100 -3.038240 -19.979601 4.896340 -22.942200 -11.246152 4.295140 0.145277 23.484243 -3.682094 -1.603258 -12.492832 1.084397 -0.594231 -11.234134 -4.489787 -0.020405 23.435387 3.570153 1.461973 -12.556517 -1.675388 0.538546 
0.108817 41.578186 0.022851 0.000000 0.000000 0.000000 0.314602 -1.166656 3.819100 -0.538168 -1.330972 0.080495 0.000000 0.000000 0.000000 0.000000 0.000000 0.000000 0.000000 -0.023001 -5.672546 0.000000 0.000000 0.000000 2.006040 -5.705613 -0.069057 -62.556847 23.336332 18.689646 -30.602448 -11.997850 -1.150094 8.262873 -4.686483 0.004557 -3.095034 6.132431 -0.048257 56.191147 36.510250 -9.523129 49.258373 16.868994 -7.017853 -20.044291 4.825174 -22.234922 -10.798986 3.954298 0.160430 21.886736 -3.583580 -1.480787 -11.360166 1.135343 -0.404697 -10.828937 -4.726101 -0.009651 21.925804 3.495049 1.302742 -11.458694 -1.628229 0.901183 
0.332202 41.663914 -0.204633 0.000000 0.000000 0.000000 0.350714 -1.414905 9.045546 -0.531789 -1.569817 0.082250 0.000000 0.000000 0.000000 0.000000 0.000000 0.000000 0.000000 -0.064663 -12.674881 0.000000 0.000000 0.000000 1.975375 -5.732652 -0.075150 -62.309811 25.770361 19.265509 -29.723305 -11.724134 -1.002558 8.723818 -5.807797 -0.151637 -3.318903 6.210990 -0.045225 40.414768 39.977196 -29.050716 59.610626 20.297606 -12.382735 -20.161465 4.696271 -20.953802 -10.205072 3.521587 0.179172 19.923565 -3.472725 -1.333840 -10.017598 1.194929 -0.149336 -10.300920 -5.028322 -0.014371 20.081352 3.403661 1.110028 -10.130979 -1.526442 1.339400 
0.560085 41.757690 -0.448182 0.000000 0.000000 0.000000 0.339900 -1.671166 14.423999 -0.526240 -1.814488 0.083392 0.000000 0.000000 0.000000 0.000000 0.000000 0.000000 0.000000 -0.099021 -19.908258 0.000000 0.000000 0.000000 1.950192 -5.754986 -0.080408 -62.042805 28.292242 19.863718 -28.779091 -11.440248 -0.845310 9.185087 -6.964472 -0.311377 -3.548568 6.295097 -0.043013 24.467712 43.247181 -48.834946 70.951935 23.389650 -17.628744 -20.258095 4.589969 -19.897318 -9.630232 3.082942 0.184050 17.919212 -3.360003 -1.168517 -8.582989 1.243099 0.122393 -9.772021 -5.330194 -0.002231 18.156319 3.305997 0.914709 -8.719360 -1.448227 1.794069 
0.757439 41.869339 -0.714324 0.000000 0.000000 0.000000 0.101416 -1.907585 19.306852 -0.526039 -2.031271 0.081263 0.000000 0.000000 0.000000 0.000000 0.000000 0.000000 0.000000 -0.089618 -26.605644 0.000000 0.000000 0.000000 1.957705 -5.749094 -0.080356 -61.739483 30.663061 20.433479 -27.733593 -11.171974 -0.676720 9.541493 -8.027668 -0.451646 -3.753657 6.387006 -0.045337 11.363575 44.796463 -65.312386 84.548126 24.110222 -21.081068 -20.231651 4.619051 -20.186457 -9.152630 2.702339 0.208375 16.009077 -3.258178 -1.006550 -7.178898 1.242993 0.341621 -9.333477 -5.584392 -0.005884 16.343443 3.228791 0.733097 -7.345097 -1.367928 2.168083 
0.889237 42.008663 -1.009585 0.000000 0.000000 0.000000 -0.545484 -2.096310 23.046499 -0.535704 -2.186450 0.073203 0.000000 0.000000 0.000000 0.000000 0.000000 0.000000 0.000000 0.000000 -32.000000 0.000000 0.000000 0.000000 2.025130 -5.691450 -0.070518 -61.383499 32.643902 20.924000 -26.550600 -10.945100 -0.495155 9.687850 -8.868540 -0.549429 -3.903800 6.488970 -0.055912 4.115950 43.101299 -74.919601 101.665001 20.424400 -21.064899 -19.979601 4.896300 -22.942200 -8.892352 2.430321 0.239188 14.435225 -3.201979 -0.846211 -5.878397 1.184281 0.529364 -9.096490 -5.748862 0.012472 14.809387 3.182536 0.566817 -6.032213 -1.307979 2.411699 
0.924872 42.162670 -1.307982 0.000000 0.000000 0.000000 -1.639107 -2.215561 25.187771 -0.542041 -2.253553 0.056898 0.000000 0.000000 0.000000 0.000000 0.000000 0.000000 0.000000 0.176761 -35.539822 0.000000 0.000000 0.000000 2.157615 -5.577577 -0.049991 -60.987907 34.033268 21.286739 -25.229170 -10.762300 -0.302984 9.536592 -9.403384 -0.593071 -3.978339 6.595208 -0.075750 4.738940 37.264225 -75.209862 121.357681 11.972767 -16.962570 -19.482460 5.443151 -28.377588 -8.836363 2.397728 0.285825 13.340502 -3.220803 -0.716894 -4.843627 1.073744 0.562810 -9.042505 -5.795846 0.004172 13.707197 3.193712 0.465471 -4.986092 -1.236393 2.446280 
